<svg height="512pt" viewBox="0 0 512 512" width="512pt" xmlns="http://www.w3.org/2000/svg"><path fill="#ffffff" d="m512 271h-151.714844l48.617188 48.617188-28.285156 28.285156-96.902344-96.902344 96.902344-96.902344 28.285156 28.285156-48.617188 48.617188h151.714844zm-276-172h40v-99h-40zm171.664062-37.398438-29.328124-27.203124-68 73.320312 29.328124 27.199219zm-206 46.117188-68-73.320312-29.328124 27.203124 68 73.316407zm34.335938 404.28125h40v-99h-40zm74.335938-107.71875 68 73.320312 29.328124-27.203124-68-73.316407zm-206 46.117188 29.328124 27.203124 68-73.320312-29.328124-27.199219zm-1.238282-268.015626 48.617188 48.617188h-151.714844v40h151.714844l-48.617188 48.617188 28.285156 28.285156 96.902344-96.902344-96.902344-96.902344zm0 0"/></svg>