<svg height="682pt" viewBox="-21 -36 682.66669 682" width="682pt" xmlns="http://www.w3.org/2000/svg"><path fill="#ffffff" d="m218.53125 254.976562c15.367188 21.054688 26.46875 36.265626 26.46875 61.753907v40.527343c0 30.78125 24.796875 55.824219 55.273438 55.824219h36.953124c30.476563 0 55.273438-25.042969 55.273438-55.824219v-40.527343c0-25.605469 10.917969-40.84375 26.023438-61.929688 18.382812-25.648437 41.234374-57.546875 41.472656-113.328125l.003906-.878906h-.003906c-.226563-37.640625-14.796875-72.964844-41.089844-99.535156-26.625-26.90625-62.191406-41.726563-100.15625-41.726563-78.28125 0-142.023438 63.289063-142.496094 141.261719l-.003906.878906h.003906c.238282 55.90625 23.542969 87.828125 42.277344 113.503906zm118.695312 108.105469h-36.953124c-3.460938 0-5.273438-2.929687-5.273438-5.824219v-31.675781h47.5v31.675781c0 2.894532-1.8125 5.824219-5.273438 5.824219zm-18.476562-313.75c50.191406 0 91.046875 41.128907 91.25 91.757813-.121094 39.9375-14.957031 60.636718-32.113281 84.589844-10.347657 14.433593-21.550781 30.074218-28.515625 49.902343h-61.339844c-7.097656-19.921875-18.542969-35.605469-29.109375-50.078125-17.457031-23.917968-32.546875-44.59375-32.671875-84.414062.203125-50.628906 41.625-91.757813 92.5-91.757813zm-.019531 92.5h-49.980469c0-27.566406 22.429688-50 50-50v50c-.015625 0-.019531 0-.019531 0zm204.253906 368.996094c10.578125 37.308594 24.328125 60.035156 24.484375 60.289063l23.800781 38.214843h-45.140625c-.132812 0-.265625 0-.402344 0-14.179687 0-79.25-3.054687-132.167968-56.136719-23.324219 3.246094-48.007813 4.886719-73.558594 4.886719-91.308594 0-168.507812-20.902343-223.238281-60.449219-30.878907-22.308593-54.777344-50.488281-71.039063-83.75-17.066406-34.910156-25.722656-75.554687-25.722656-120.800781 0-45.242187 8.65625-85.886719 25.722656-120.800781 16.261719-33.261719 40.160156-61.4375 71.039063-83.75 14.175781-10.242188 29.871093-19.222656 46.914062-26.921875-9.488281 20.640625-15.402343 43.238281-16.988281 67-.210938.152344-.433594.300781-.640625.449219-50.460937 36.460937-76.046875 91.648437-76.046875 164.023437 0 72.378907 25.585938 127.566407 76.046875 164.023438 46.15625 33.351562 113.226563 50.976562 193.953125 50.976562 27.738281 0 54.203125-2.109375 78.667969-6.257812l13.917969-2.363281 9.214843 10.699218c19.792969 22.988282 42.644531 35.257813 62.035157 41.796875-5.03125-13.589843-10.132813-29.898437-14.25-48.484375l-4.242188-19.148437 17.589844-8.675781c71.046875-35.046876 107.066406-96.472657 107.066406-182.566407 0-72.375-25.585938-127.5625-76.046875-164.023437-1.5-1.082032-3.03125-2.148438-4.574219-3.203125-1.835937-23.1875-7.753906-45.535157-17.394531-66.183594 18.734375 8.117187 35.875 17.753906 51.253906 28.859375 30.878907 22.3125 54.777344 50.488281 71.039063 83.75 17.066406 34.914062 25.722656 75.558594 25.722656 120.800781 0 97.859375-40.355469 172.714844-117.015625 217.746094zm0 0"/></svg>