<svg height="511pt" viewBox="0 0 511.99734 511" width="511pt" xmlns="http://www.w3.org/2000/svg"><path fill="#ffffff" d="m452.527344 49.414062c-.050782 0-.097656 0-.148438 0-15.972656 0-30.996094 6.203126-42.320312 17.476563-3.257813 3.242187-6.085938 6.804687-8.480469 10.601563-5.914063-8.691407-12.664063-16.949219-20.25-24.644532-68.136719-69.105468-179.789063-69.894531-248.894531-1.757812-8.132813 8.015625-15.421875 16.78125-21.796875 26.132812-2.359375-3.695312-5.125-7.164062-8.308594-10.332031-11.359375-11.304687-26.417969-17.523437-42.46875-17.476563-33.082031.078126-59.9335938 27.058594-59.859375 60.132813v249.980469c.0625 27.164062 11.085938 52.777344 30.160156 72.125l79.628906 80.761718h56.175782l-107.320313-108.847656c-11.671875-11.835937-18.605469-27.507812-18.644531-44.125v-249.976562c-.023438-11.03125 8.925781-20.023438 19.953125-20.050782h.050781c5.324219 0 10.332032 2.070313 14.105469 5.824219 3.785156 3.769531 5.878906 8.789063 5.890625 14.117188v178.058593l.351562-.011718c-.660156 5.503906-.515624 11.140625.503907 16.742187 1.171875 6.433594 4.0625 18.589844 10.269531 27.730469 3.519531 5.1875 70.175781 88.863281 98.667969 124.601562l31.273437-24.9375c-36.578125-45.875-92.28125-115.925781-96.921875-122.242187-.945312-1.484375-2.785156-5.988281-3.9375-12.320313-.949219-5.226562.730469-10.566406 4.503907-14.285156 3.042968-3 7.105468-4.601562 11.347656-4.605468 4.273437.03125 8.28125 1.722656 11.285156 4.769531l97.167969 98.476562c.585937.59375 1.164062 1.191407 1.742187 1.789063 28.097656 29.195312 46.300782 65.78125 52.644532 105.800781l3.726562 23.496094h40.378906l-.621094-4.667969-3.976562-25.089844c-6.945312-43.804687-25.707031-84.191406-54.492188-117.570312l80.816407-81.90625c3-3.042969 7.007812-4.734375 11.28125-4.765625 4.234375-.03125 8.300781 1.605469 11.34375 4.605469 3.773437 3.71875 5.457031 9.058593 4.503906 14.289062-1.148437 6.320312-2.984375 10.824219-3.9375 12.316406-1.28125 1.738282-8.855469 11.539063-49.546875 62.730469 7.800781 12.355469 14.59375 25.289063 20.332031 38.703125 2.316407-2.914062 4.675781-5.878906 7.050781-8.867188 52.5-66.03125 54.246094-68.605468 55.183594-69.988281 6.207032-9.140625 9.101563-21.300781 10.273438-27.730469.835937-4.59375 1.085937-9.214843.785156-13.765624v-110.152344c.058594-2.652344.058594-5.300782 0-7.953125v-63.234375c.011719-5.34375 2.488281-10.359375 6.273438-14.128906 3.773437-3.757813 8.78125-5.824219 14.109374-5.824219h.046876c11.027343.023437 19.59375 9.019531 19.570312 20.054687v249.964844c-.039062 16.621094-6.589844 32.292969-18.261719 44.132812l-107.320312 108.847657h56.175781l79.628906-80.765625c19.074219-19.34375 29.710938-44.957032 29.773438-72.128906v-249.96875c.078125-33.082032-26.386719-60.0625-59.46875-60.140626zm-116.273438 205.679688-54.058594 54.785156c-17.074218 3.324219-34.824218 3.34375-51.914062.082032l-54.460938-55.191407c-10.5-10.652343-24.519531-16.578125-39.480468-16.683593-.527344-.003907-1.050782.015624-1.574219.027343-26.433594-52.023437-16.449219-116.9375 25.75-158.542969 53.398437-52.648437 139.675781-52.039062 192.328125 1.359376 41.449219 42.042968 50.871094 105.65625 24.238281 157.511718-.453125-.007812-.902343-.027344-1.355469-.027344-14.953124.109376-28.976562 6.03125-39.472656 16.679688zm-27.253906-47.242188c0 20.847657-13.398438 39.269532-32 47.1875v25.375h-40v-25.226562c-5.933594-2.460938-11.4375-6.015625-16.230469-10.582031-10.167969-9.6875-15.769531-22.539063-15.769531-36.191407h40c0 5.621094 5.683594 10.742188 11.925781 10.742188 6.09375 0 12.074219-5.601562 12.074219-11.308594 0-3.953125-11.492188-9.878906-19.882812-14.207031l-1.371094-.703125c-13.191406-6.816406-37.746094-19.5-37.746094-50.972656 0-18.371094 11.0625-34.253906 27-41.605469v-26.945313h40v26.929688c15.941406 7.285156 27 22.953125 27 41.070312h-40c0-2.835937-3.371094-5.417968-7.074219-5.417968-3.558593 0-6.925781 2.898437-6.925781 5.96875 0 5.054687 1.457031 7.867187 16.105469 15.433594l1.34375.691406c8.617187 4.445312 17.527343 9.039062 25.082031 15.589844 10.929688 9.46875 16.46875 20.964843 16.46875 34.171874zm0 0"/></svg>