<svg height="511pt" viewBox="0 1 511 511.999" width="511pt" xmlns="http://www.w3.org/2000/svg"><path fill="#ffffff" d="m494.867188 257.347656-.566407-.566406-125.488281-106.851562-.113281-33.160157-74.753907.257813-48.71875 48.714844c-7.636718 7.636718-20.171874 7.761718-27.945312.277343-3.726562-3.589843-5.8125-8.535156-5.863281-13.929687-.054688-5.664063 2.183593-11.179688 6.136719-15.132813l39.726562-42.382812c31.949219-34.097657 77.078125-53.65625 123.808594-53.65625h130.394531v-39.921875h-130.394531c-46.527344 0-91.761719 15.707031-128.230469 43.851562-36.847656-29.027344-82.214844-44.847656-129.558594-44.847656h-122.800781v39.921875h122.800781c36.246094 0 71.0625 11.449219 99.96875 32.570313l-34.195312 36.492187c-11.328125 11.46875-17.730469 27.296875-17.574219 43.488281.15625 16.199219 6.582031 31.226563 18.097656 42.3125 11.351563 10.925782 26.332032 16.859375 42.054688 16.722656 15.789062-.140624 30.636718-6.367187 41.800781-17.535156l37.082031-37.082031 4.855469-.019531 151.695313 129.167968c6.164062 6.644532 6.011718 17.066407-.449219 23.53125-3.175781 3.175782-7.433594 4.921876-11.996094 4.921876s-8.820313-1.746094-11.996094-4.921876l-4.097656-4.097656-28.226563 28.226563 4.09375 4.097656c1.917969 1.914063 3.9375 3.664063 6.042969 5.25l-.398437.394531c6.617187 6.617188 6.617187 17.378906 0 23.996094-6.613282 6.613281-17.378906 6.613281-23.992188 0l-6.773437-6.722656-28.226563 28.226562 4.589844 4.589844c3.4375 3.453125 5.511719 8.363281 5.6875 13.480469.09375 2.792969-.332031 8.066406-4.285156 12.011719-6.246094 6.25-17.0625 5.601562-24.101563-1.4375l-.558593-.5625-3.597657-3.066407-27.066406 29.304688c3.332031 3.328125 5.195313 7.6875 5.246094 12.273437.050781 4.4375-1.628907 8.589844-4.726563 11.6875-6.617187 6.617188-17.515625 6.484375-24.34375-.347656l-2.839844-2.816406c8.15625-20.785156 3.855469-45.367188-12.914062-62.140625-7.507812-7.507813-16.65625-12.761719-26.570312-15.398438 2.460937-17.148437-2.890626-35.210937-16.054688-48.375-9.863281-9.863281-22.480469-15.328125-35.398438-16.417969-.976562-12.84375-6.464843-25.445312-16.496093-35.476562-9.921875-9.921875-22.628907-15.390625-35.628907-16.4375-1.042968-13-6.511718-25.707031-16.433593-35.628906-22.136719-22.128906-58.121094-22.179688-80.316407-.136719l-27.890624 26.929687-.25.246094c-10.714844 10.714844-16.617188 25-16.617188 40.222656 0 15.226563 5.902344 29.511719 16.617188 40.226563 8.480468 8.480469 18.996093 13.707031 29.988281 15.703125-.515625 15.207031 5.003906 30.582031 16.589843 42.164062 10.328126 10.332032 24.117188 15.980469 38.933594 15.980469.28125 0 .5625-.003906.847656-.007812 1.613282 11.863281 6.945313 23.289062 16.019532 32.363281 11.039062 11.039062 25.546875 16.550781 40.101562 16.546875 1.222656 0 2.445313-.050781 3.667969-.128906 2.113281 11.617187 7.65625 22.300781 16.136719 30.78125 11.285156 11.285156 26.105468 16.925781 40.929687 16.925781 14.476563-.003906 28.945313-5.398438 40.125-16.160156 11.132813 10.757812 25.542969 16.160156 39.925781 16.15625 14.550782 0 29.066407-5.507813 40.101563-16.546875 8.828125-8.828125 14.339844-20.066407 15.9375-32.25 14.207031-.023438 28.242187-5.320313 38.867187-15.949219 9.335938-9.332031 14.832032-21.589844 15.824219-35.03125 13.535157-.722656 26.859375-6.238281 37.175781-16.554688 11.582032-11.582031 17.113282-26.953124 16.601563-42.15625 10.988281-1.996093 21.5-7.234374 29.976563-15.710937 22.179687-22.179687 22.179687-58.269531 0-80.449219zm-454.445313 44.097656c0-4.511718 1.710937-8.726562 4.820313-11.894531l27.859374-26.890625.25-.246094c3.175782-3.179687 7.4375-4.925781 11.996094-4.925781 4.5625 0 8.824219 1.746094 12 4.925781 3.171875 3.175782 4.921875 7.433594 4.921875 11.996094 0 3.789063-1.222656 7.367188-3.453125 10.292969-.523437.480469-1.042968.964844-1.554687 1.46875l-20.472657 20.074219-7.199218 6.953125-.25.246093c-3.175782 3.175782-7.4375 4.925782-12 4.925782-4.558594 0-8.820313-1.75-11.996094-4.925782-3.175781-3.175781-4.921875-7.4375-4.921875-12zm51.5 69.867188c-6.597656-6.597656-6.613281-17.320312-.054687-23.9375l12.78125-12.535156 20.675781-19.960938.25-.242187c.535156-.535157 1.042969-1.085938 1.554687-1.636719 6.644532-5.078125 16.207032-4.597656 22.28125 1.476562 6.570313 6.574219 6.609375 16.085938.101563 22.652344l-34.0625 33.394532c-6.984375 6.445312-17.503907 6.8125-23.527344.789062zm55.800781 48.335938c-6.605468-6.609376-6.480468-17.484376.273438-24.265626l29.242187-28.9375.074219-.074218c3.171875-3.175782 7.433594-4.921875 11.996094-4.921875 4.558594 0 8.820312 1.746093 11.996094 4.921875 6.605468 6.605468 6.613281 17.347656.03125 23.964844l-29.246094 28.941406-.074219.070312c-6.777344 6.78125-17.675781 6.914063-24.292969.300782zm59.90625 47.195312c-3.441406-3.441406-5.363281-8.054688-5.414062-12.992188-.050782-4.835937 1.730468-9.304687 5.015625-12.585937l11.976562-11.976563c3.195313-3.199218 7.34375-4.78125 11.585938-4.78125 4.636719 0 9.390625 1.890626 13.136719 5.636719 7.003906 7.003907 7.003906 18.402344 0 25.40625l-11 11.398438c-7.011719 6.898437-18.332032 6.863281-25.300782-.105469zm0 0"/></svg>