<svg height="512pt" viewBox="0 0 512 512.1" width="512pt" xmlns="http://www.w3.org/2000/svg"><path fill="#40babc" d="m347.554688 154.898438 83.5-84.398438v48.5h40v-119h-120v40h53.898437l-68.296875 69.101562-179.203125-60.203124-119.398437 48v43.101562l120.601562-48.5zm-148.601563 185.203124c0 5.296876 2.601563 10.199219 7 13.199219 5.300781 3.597657 9.800781 5.5 11.5 5.800781 7.800781 1.097657 96.800781 10.597657 155.101563 16.796876l-4.199219 39.800781c-45.5-4.800781-151.800781-16.097657-158-17.199219-10.902344-2-21.601563-8.5-27-12.199219-5.101563-3.5-9.601563-7.800781-13.199219-12.601562l-.203125.199219-96-94.199219c-3.796875-3.699219-8.699219-5.699219-14-5.699219-.097656 0-.097656 0-.199219 0-5.300781.101562-10.300781 2.199219-14.097656 6-3.703125 3.800781-5.800781 8.898438-5.703125 14.199219 0 5.300781 2.203125 10.300781 6 14.101562l148.402344 145.699219c11.898437 11.601562 27.597656 18.101562 44.199219 18.101562h273.5v40h-273.398438c-27.203125 0-52.800781-10.5-72.203125-29.5l-148.398437-145.800781c-11.5-11.199219-17.800782-26.199219-18.0000005-42.199219s5.8984375-31.101562 17.1992185-42.601562c6-6.101562 13.101563-10.800781 20.800782-13.800781v-55.898438l40-15.800781v70.300781c8.898437 2.800781 17.101562 7.699219 24 14.398438l15 14.699219v-114.898438l40-15.800781v170l8.601562 8.402343c6.398438-11.800781 16.796875-21 29.398438-25.800781v-141.800781l40 13.398438v124.703124h38v-112l40 13.398438v98.5h39v-77l40-40.398438v120.5c13.300781 2.199219 26.300781 5.5 39 9.898438v-138h40v156.300781c7 4 13.800781 8.300781 20.300781 13.097657l20.699219 14.800781v49.199219l-43.898438-31.398438c-33-23.601562-71.800781-36.300781-112.300781-36.800781-.800781 0-1.601563 0-2.5 0l-138.402344.101562c-8.796875-.199219-16 7-16 15.800781zm0 0"/></svg>