<?xml version="1.0" encoding="iso-8859-1"?>
<!-- Generator: Adobe Illustrator 19.0.0, SVG Export Plug-In . SVG Version: 6.00 Build 0)  -->
<svg version="1.1" id="Capa_1" xmlns="http://www.w3.org/2000/svg" xmlns:xlink="http://www.w3.org/1999/xlink" x="0px" y="0px"
	 viewBox="0 0 512 512" style="enable-background:new 0 0 512 512;" xml:space="preserve">
<g>
	<g>
		<g>
			<path fill="#40babc" d="M512,192.736v-35.198L255.478,0.263L0,157.563v35.173h35v279H0v40h512v-40h-35v-279H512z M255.522,47.21L427.64,152.736
				H84.133L255.522,47.21z M115,471.737H75v-279h40V471.737z M357,471.737H155v-279h202V471.737z M437,471.737h-40v-279h40V471.737z
				"/>
			<path fill="#40babc" d="M236,414.791v26.945h40v-27.019c6.696-2.726,12.869-6.823,18.167-12.169C304.377,392.245,310,378.724,310,364.471
				c0-30.221-25.77-43.566-44.585-53.309l-0.217-0.112c-15.709-8.136-18.222-11.582-18.222-18.471c0-4.305,4.132-7.942,9.024-7.942
				c4.435,0,9.024,2.768,9.024,7.4v3.702h40v-3.702c0-19.251-11.937-35.845-29.024-43.26v-27.038h-40v27.085
				c-17.087,7.499-29.024,24.283-29.024,43.754c0,33.364,25.908,46.782,39.826,53.99l0.217,0.111
				C260.9,353.869,270,358.992,270,364.471c0,7.545-6.542,14.163-14,14.163s-14-6.454-14-13.81v-6.088v-0.002h-40v6.088
				C202,387.455,216.1,406.853,236,414.791z"/>
		</g>
	</g>
</g>
<g>
</g>
<g>
</g>
<g>
</g>
<g>
</g>
<g>
</g>
<g>
</g>
<g>
</g>
<g>
</g>
<g>
</g>
<g>
</g>
<g>
</g>
<g>
</g>
<g>
</g>
<g>
</g>
<g>
</g>
</svg>
