<svg height="512pt" viewBox="0 0 512 512" width="512pt" xmlns="http://www.w3.org/2000/svg"><path fill="#40babc" d="m100 120c33.085938 0 60-26.914062 60-60s-26.914062-60-60-60-60 26.914062-60 60 26.914062 60 60 60zm0-80c11.027344 0 20 8.972656 20 20s-8.972656 20-20 20-20-8.972656-20-20 8.972656-20 20-20zm312 80c33.085938 0 60-26.914062 60-60s-26.914062-60-60-60-60 26.914062-60 60 26.914062 60 60 60zm0-80c11.027344 0 20 8.972656 20 20s-8.972656 20-20 20-20-8.972656-20-20 8.972656-20 20-20zm-179.796875 326h159.796875v146h-40v-106h-120.742188l25.191407 24.863281-28.101563 28.46875-73.820312-72.867187 74.421875-73.457032 28.101562 28.46875zm-192.203125-39h40v185h-40v-145h-40v-168c0-33.085938 26.914062-60 60-60h80c33.085938 0 60 26.914062 60 60v21h79.078125l-25.128906-24.800781 28.101562-28.46875 74.421875 73.457031-73.820312 72.867188-28.101563-28.46875 24.910157-24.585938h-119.460938v-61c0-11.027344-8.972656-20-20-20h-80c-11.027344 0-20 8.972656-20 20zm80 81.585938 40 39.484374v63.929688h-40zm392-209.585938v168h-40v145h-40v-185h40v-128c0-11.027344-8.972656-20-20-20h-80c-5.640625 0-10.742188 2.351562-14.378906 6.117188l-28.441406-28.070313c10.894531-11.121094 26.058593-18.046875 42.820312-18.046875h80c33.085938 0 60 26.914062 60 60zm0 0"/></svg>