<svg height="511pt" viewBox="0 0 511 511.99999" width="511pt" xmlns="http://www.w3.org/2000/svg"><path fill="#40babc" d="m484.222656 393.75-31.101562 31.097656-168.917969-168.917968 117.738281-117.738282c50.992188 57.046875 66.179688 117.601563 69.15625 131.734375h41.257813v-69.679687c.203125-39.035156-12.652344-93.207032-40.933594-131.035156l23.828125-23.828126-28.273438-28.277343-23.992187 23.992187c-39.082031-28.410156-96.953125-41.28125-138.433594-41.09374975h-73.117187v40.96874975c11.746094 2.035156 79.457031 15.71875 141.9375 69.238282l-117.441406 117.441406-61.5625-61.5625 49.390624-49.085938-85.492187-85.496094c-20.316406-20.316406-47.328125-31.50390575-76.0625-31.50390575h-31.089844c-27.90625 0-50.613281 22.70312475-50.613281 50.61328175v31.359374c0 28.515626 11.046875 55.386719 31.105469 75.65625l84.914062 85.820313 49.480469-49.171875 61.652344 61.648438-167.917969 167.917968-30.101563-30.097656-28.277343 28.273438 89.976562 89.976562 28.277344-28.277344-31.601563-31.597656 167.917969-167.917969 168.917969 168.917969-30.597656 30.597656 28.277344 28.277344 89.972656-89.976562zm-54.886718-312.125c18.894531 18.222656 31.867187 48.503906 38.320312 77.667969-13.460938-21.546875-30.90625-44.246094-53.441406-65.984375-20.628906-19.894532-42.074219-35.601563-62.648438-47.96875 29.554688 6.480468 59.582032 18.746094 77.769532 36.285156zm-369.304688 47.882812c-12.601562-12.734374-19.542969-29.617187-19.542969-47.53125v-31.359374c0-5.859376 4.765625-10.625 10.625-10.625h31.089844c18.050781 0 35.023437 7.027343 47.785156 19.792968l57.132813 57.128906-70.363282 69.925782zm0 0"/></svg>