<svg height="512pt" viewBox="0 0 512 512" width="512pt" xmlns="http://www.w3.org/2000/svg"><path fill="#40babc" d="m511.28125 256.359375-255.640625 255.640625-255.640625-255.640625h115.28125v-106.148437h40.054688v146.203124h-58.632813l158.9375 158.9375 158.9375-158.9375h-58.960937v-146.203124h40.054687v106.148437zm-355.945312-256.359375h-40.054688v40.054688h40.054688zm240.335937 0h-40.054687v40.054688h40.054687zm-240.335937 70.097656h-40.054688v50.070313h40.054688zm240.335937 0h-40.054687v50.070313h40.054687zm-140.292969 212.027344c-11.148437 0-20.929687-10.105469-20.929687-21.625h-40.058594c0 26.414062 17.4375 49.574219 41.058594 58.144531v30.84375h40.054687v-30.796875c8.535156-3.050781 16.402344-8.039062 23.066406-14.761718 11.601563-11.707032 17.992188-27.050782 17.992188-43.199219 0-15.660157-6.511719-29.335938-19.351562-40.648438-9.398438-8.277343-20.90625-14.273437-32.035157-20.074219l-.539062-.28125c-18.894531-9.847656-25.179688-15.011718-25.179688-26.167968 0-7.503906 7.589844-14.335938 15.925781-14.335938 8.191407 0 15.117188 6.421875 15.117188 14.019532h40.054688c0-23.230469-15.027344-43.082032-36.050782-50.722657v-32.394531h-40.054687v33.152344c-20.328125 8.242187-35.050781 27.945312-35.050781 50.28125 0 37.335937 29.25 52.582031 46.726562 61.6875l.539062.28125c20.285157 10.574218 29.84375 16.507812 29.84375 25.203125 0 11.398437-9.875 21.394531-21.128906 21.394531zm0 0"/></svg>