<?xml version="1.0" encoding="iso-8859-1"?>
<!-- Generator: Adobe Illustrator 19.0.0, SVG Export Plug-In . SVG Version: 6.00 Build 0)  -->
<svg version="1.1" id="Capa_1" xmlns="http://www.w3.org/2000/svg" xmlns:xlink="http://www.w3.org/1999/xlink" x="0px" y="0px"
	 viewBox="0 0 512 512" style="enable-background:new 0 0 512 512;" xml:space="preserve">
<g>
	<g>
		<g>
			<path fill="#40babc" d="M117.113,232.359c-37.575-19.586-64.172-36.58-64.172-77.094c0-29.826,24.645-54.091,54.938-54.091
				c30.293,0,54.938,24.198,54.938,53.94v19.978h39.955v-19.978c0-44.994-32.153-82.691-74.916-91.794V0.287H87.901v63.035
				c-42.763,9.118-74.916,46.875-74.916,91.943c0,29.291,9.387,53.354,28.696,73.565c16.28,17.039,37.067,28.589,56.963,38.96
				c48.008,25.025,77.159,42.602,77.159,75.612c0,37.089-31.105,68.423-67.924,68.423s-67.924-31.563-67.924-68.923v-19.978H0
				v19.978c0,28.685,11.219,55.876,31.591,76.569c15.672,15.916,35.186,26.362,56.311,30.411v61.831h39.955V449.9
				c21.118-4.01,40.612-14.358,56.256-30.124c20.407-20.567,31.646-47.69,31.646-76.373
				C215.758,283.779,163.351,256.461,117.113,232.359z"/>
			<path fill="#40babc" d="M247.149,300.95l132.426,159.653L512,300.95H247.149z M332.202,340.905h94.747l-47.374,57.114L332.202,340.905z"/>
			<path fill="#40babc" d="M379.574,55.221L247.397,216.045h264.355L379.574,55.221z M379.574,118.149l47.621,57.941h-95.242L379.574,118.149z"/>
		</g>
	</g>
</g>
<g>
</g>
<g>
</g>
<g>
</g>
<g>
</g>
<g>
</g>
<g>
</g>
<g>
</g>
<g>
</g>
<g>
</g>
<g>
</g>
<g>
</g>
<g>
</g>
<g>
</g>
<g>
</g>
<g>
</g>
</svg>
