<svg height="512pt" viewBox="0 0 512 512" width="512pt" xmlns="http://www.w3.org/2000/svg"><path fill="#40babc" d="m476 472v-285.324219l-160-80.503906v-27.171875h-40v-40h-80v-39h-40v39h-80v40h-40v393h-36v40h512v-40zm-40-260.675781v260.675781h-120v-321.050781zm-360-92.324219h40v-40h120v40h40v353h-200zm40 40h40v40h-40zm80 0h40v40h-40zm-80 80h40v40h-40zm80 0h40v40h-40zm-80 80h40v40h-40zm80 0h40v40h-40zm-80 80h40v40h-40zm80 0h40v40h-40zm200-120h-40v-40h40zm0 80h-40v-40h40zm-40 80v-40h40v40zm0 0"/></svg>